<svg width="578" height="150" viewBox="0 0 578 150" fill="none" xmlns="http://www.w3.org/2000/svg">
<path d="M269.828 50.2812C278.453 53.7812 282.766 55.9375 282.766 56.75C285.578 67.8125 286.984 73.5312 286.984 73.9062C284.828 87.2812 283.094 93.9688 281.781 93.9688C280.812 96.2812 280.062 97.4688 279.531 97.5312C270.688 95.9375 266.266 94.6406 266.266 93.6406C264.984 91.0781 262.719 86.875 259.469 81.0312C261.406 69.125 262.594 62.7656 263.031 61.9531C267.406 59.1406 269.891 57.7344 270.484 57.7344C276.609 61.0156 279.844 63.9219 280.188 66.4531C280.469 66.4844 280.891 67.0312 281.453 68.0938C279.828 74.3438 278.219 77.4688 276.625 77.4688C274.031 78.75 272.406 79.3906 271.75 79.3906L267.25 74.5625L267.578 72.2656V68.75C267.578 68.0312 269.844 67.375 274.375 66.7812L276.297 70.0156C276.297 71.1094 275.75 72.1875 274.656 73.25C274.531 73.25 273.891 72.3906 272.734 70.6719H270.156V71C270.156 72.9688 271.125 75.125 273.062 77.4688C276.312 76.5625 277.938 75.0469 277.938 72.9219C278.219 72.9219 278.531 72.1719 278.875 70.6719C277.625 67.2031 276.547 65.4688 275.641 65.4688C275.297 65.2812 273.031 64.5312 268.844 63.2188L264.344 76.4844C268.406 84.7656 270.562 88.9688 270.812 89.0938C275.156 88.4688 277.953 88.1562 279.203 88.1562L282.766 72.9219C281.828 62.7969 281.078 57.7344 280.516 57.7344C275.516 55.3594 272.812 54.1719 272.406 54.1719C265.781 58.0469 262.219 59.9844 261.719 59.9844V59.6562C266.594 53.7188 269.297 50.5938 269.828 50.2812ZM312.625 50.2812C312.625 50.5 312.734 50.6094 312.953 50.6094C312.547 51.8906 311.828 56.6875 310.797 65H310.469C309.969 65 309.469 62.75 308.969 58.25H299.734L296.688 58.5781C297.531 66.6094 298.141 71.4062 298.516 72.9688C300.578 72.9688 301.609 72.0469 301.609 70.2031C301.859 68.9844 302.156 68.375 302.5 68.375H302.828C304.672 74.9688 305.594 78.5469 305.594 79.1094H305.266L302.828 76.9531H302.219L299.125 77.2812C300.781 88.4062 301.703 94.1406 301.891 94.4844C304.391 95.4844 305.922 95.9844 306.484 95.9844V96.9219C297.859 97.3281 292.859 97.5312 291.484 97.5312V97.2031C291.703 96.6719 292.719 95.8594 294.531 94.7656C292.906 71.6094 291.891 58.5156 291.484 55.4844C289.047 53.7656 287.812 52.75 287.781 52.4375V52.1094H288.109C290.859 51.5156 299.031 50.9062 312.625 50.2812Z" fill="white"/>
<path d="M47 27.6875L47.5625 28.8125C46.0208 37.3958 45.25 42.5417 45.25 44.25H44.125C42.5833 38.5417 41.4375 35.6875 40.6875 35.6875H25.8125L33.8125 112.375C36.7708 114.292 38.5 115.25 39 115.25V116.375H23.5C21.5 116.375 18.2708 116.188 13.8125 115.812V115.25C16.8542 111.417 18.9375 109.5 20.0625 109.5V35.6875C10.9375 36.9375 6.375 38.2708 6.375 39.6875C5.58333 43.5625 5.1875 45.8542 5.1875 46.5625H4.0625L0.625 32.25C2.91667 31.5 18.375 29.9792 47 27.6875ZM58.5625 27.6875H68.9375C73.0208 27.6875 79.1458 27.8958 87.3125 28.3125V28.9375L83.625 32.5625C89.75 57.8958 96.0625 82.9792 102.562 107.812C103.312 107.812 105.562 108.646 109.312 110.312V111.5L86.6875 116.375V115.188C90.7708 110.938 92.8125 108.479 92.8125 107.812C92.3958 107.146 90.9583 102.875 88.5 95C75.0417 95.9583 68.3125 97.375 68.3125 99.25C68.0208 105.792 67.625 109.062 67.125 109.062C68.4167 111.104 70.6458 113.958 73.8125 117.625H72.625C56.7083 113.958 48.75 111.708 48.75 110.875V110.312C56.5 107.438 60.375 104.979 60.375 102.938C65.25 58.6875 67.6875 35.6458 67.6875 33.8125C62.1458 30.5625 59.1042 28.9375 58.5625 28.9375V27.6875ZM75.6875 56.4375C72.0208 79.1458 69.9792 90.9792 69.5625 91.9375C80.5625 90.3125 86.0625 89.0833 86.0625 88.25C79.5625 68 76.3125 57.3958 76.3125 56.4375H75.6875ZM135.688 27.6875V28.3125L132.688 31.9375V106.125H152L157.438 83.1875H158.625C158.625 86.6458 159.438 96.8958 161.062 113.938L159.875 114.562C132.458 115.354 116.771 115.75 112.812 115.75C112.021 116.167 111.417 116.375 111 116.375L110.375 115.188C111 115.188 113.417 113.167 117.625 109.125C118.417 65.7083 118.812 40.5625 118.812 33.6875C114.729 31.3125 112.312 30.125 111.562 30.125V28.875C125.688 28.0833 133.729 27.6875 135.688 27.6875ZM202 27.875H203.125C203.917 28 204.312 28.3958 204.312 29.0625C204.729 41.0625 204.938 49.2708 204.938 53.6875H203.75L196.688 40.75H182.625C182.625 43.7083 182.229 54.4583 181.438 73H182.062C185.188 73 187.333 71.25 188.5 67.75C189.667 66.875 190.25 65.8958 190.25 64.8125H191.438V73.5625C191.438 76.3125 191.625 80.625 192 86.5H190.812C189.312 81.7917 187.167 79.4375 184.375 79.4375H180.875V80.0625C180.875 83.9375 180.688 92.125 180.312 104.625C192.396 104.625 198.438 103.458 198.438 101.125C201.979 95.125 203.75 91.6042 203.75 90.5625H204.938C205.688 102.438 206.062 110.25 206.062 114C206.479 114.792 206.688 115.396 206.688 115.812L205.5 116.375C179.458 115.583 165 115.188 162.125 115.188V114.625C162.125 114.25 165.646 111.521 172.688 106.438C172.688 106.146 172.479 104.958 172.062 102.875C171.562 58.3333 170.604 36.0625 169.188 36.0625C166.062 33.9375 164.5 32.5833 164.5 32V30.8125H165.062C183.854 28.8542 196.167 27.875 202 27.875ZM238.688 27.8125L243.375 44.9375L251.688 46.125V47.3125L232.125 58.5V57.9375C231.75 56.2292 230.771 48.9375 229.188 36.0625H223.875C223.875 38.9792 222.875 48.8333 220.875 65.625C224.792 65.625 234.667 65.2292 250.5 64.4375C250.5 64.8125 250.708 65 251.125 65L250.5 67.375C249.583 99.6667 248.396 115.812 246.938 115.812H238.688C234.729 115.812 228.792 116 220.875 116.375C216.167 98.5417 213.604 89.2917 213.188 88.625C209.646 86.75 207.875 85.5625 207.875 85.0625V84.5C217.417 82.125 224.729 80.9375 229.812 80.9375C227.938 84.4792 226.75 86.25 226.25 86.25C229 98.875 230.771 105.188 231.562 105.188H236.312V73.25C225.688 74.0417 217.188 74.4375 210.812 74.4375V73.875C211.604 57.375 212 44.5833 212 35.5C212 32.3333 215.354 30.75 222.062 30.75C230.229 28.7917 235.771 27.8125 238.688 27.8125Z" fill="white"/>
<path d="M343.375 24.625L367.688 72C359.604 92.25 353.938 106.042 350.688 113.375L347.625 112.75H340.938C336.688 112.75 330.208 112.562 321.5 112.188V110.938C322.708 110.938 325.146 110.125 328.812 108.5C327.979 97.8333 326.75 72.1042 325.125 31.3125C322.292 30.1042 319.458 29.2917 316.625 28.875V27.625C330.5 25.625 339.417 24.625 343.375 24.625ZM339.125 52.5625V53.1875L337.312 105.5C343.479 97.2917 349.562 87.9583 355.562 77.5C346.938 63.625 341.458 55.3125 339.125 52.5625ZM408.75 24.875H409.875C410.667 25 411.062 25.3958 411.062 26.0625C411.479 38.0625 411.688 46.2708 411.688 50.6875H410.5L403.438 37.75H389.375C389.375 40.7083 388.979 51.4583 388.188 70H388.812C391.938 70 394.083 68.25 395.25 64.75C396.417 63.875 397 62.8958 397 61.8125H398.188V70.5625C398.188 73.3125 398.375 77.625 398.75 83.5H397.562C396.062 78.7917 393.917 76.4375 391.125 76.4375H387.625V77.0625C387.625 80.9375 387.438 89.125 387.062 101.625C399.146 101.625 405.188 100.458 405.188 98.125C408.729 92.125 410.5 88.6042 410.5 87.5625H411.688C412.438 99.4375 412.812 107.25 412.812 111C413.229 111.792 413.438 112.396 413.438 112.812L412.25 113.375C386.208 112.583 371.75 112.188 368.875 112.188V111.625C368.875 111.25 372.396 108.521 379.438 103.438C379.438 103.146 379.229 101.958 378.812 99.875C378.312 55.3333 377.354 33.0625 375.938 33.0625C372.812 30.9375 371.25 29.5833 371.25 29V27.8125H371.812C390.604 25.8542 402.917 24.875 408.75 24.875ZM446.312 24.9375C447.729 26.4792 449.167 30.1458 450.625 35.9375H451.812L456.688 25.5625H457.938C457.521 37.9375 457.312 47.0833 457.312 53V59.6875C457.312 60.8958 452.646 61.9167 443.312 62.75C441.688 48.5833 440.667 40.6667 440.25 39C434.208 41.4167 430.542 42.625 429.25 42.625V73.125C429.25 75.5833 431.688 86.3542 436.562 105.438C441.354 105.021 444.812 104.812 446.938 104.812H447.562C447.562 94.2708 448.979 89 451.812 89C456.938 88.1667 459.792 87.75 460.375 87.75L461 89C458.292 105.25 456.25 113.375 454.875 113.375H432.312C430.688 112.542 424.792 97.8958 414.625 69.4375L423.75 27.375C425.833 27.375 433.354 26.5625 446.312 24.9375ZM471.812 24.6875H482.188C486.271 24.6875 492.396 24.8958 500.562 25.3125V25.9375L496.875 29.5625C503 54.8958 509.312 79.9792 515.812 104.812C516.562 104.812 518.812 105.646 522.562 107.312V108.5L499.938 113.375V112.188C504.021 107.938 506.062 105.479 506.062 104.812C505.646 104.146 504.208 99.875 501.75 92C488.292 92.9583 481.562 94.375 481.562 96.25C481.271 102.792 480.875 106.062 480.375 106.062C481.667 108.104 483.896 110.958 487.062 114.625H485.875C469.958 110.958 462 108.708 462 107.875V107.312C469.75 104.438 473.625 101.979 473.625 99.9375C478.5 55.6875 480.938 32.6458 480.938 30.8125C475.396 27.5625 472.354 25.9375 471.812 25.9375V24.6875ZM488.938 53.4375C485.271 76.1458 483.229 87.9792 482.812 88.9375C493.812 87.3125 499.312 86.0833 499.312 85.25C492.812 65 489.562 54.3958 489.562 53.4375H488.938ZM551.125 24.8125L552.375 25.375H575.688C576.479 25.5 576.875 25.9167 576.875 26.625C572.75 27.7917 569.167 31.7708 566.125 38.5625C556.958 57.4375 552.375 67.4167 552.375 68.5V108.562C552.375 109.688 554.354 110.896 558.312 112.188V113.375L555.938 112.75C544.938 112.375 537.958 112.188 535 112.188L534.375 111V110.375C534.958 110.375 537.167 109.375 541 107.375C541 103.75 542.396 91.1875 545.188 69.6875C536.938 50.9792 531.938 40.2083 530.188 37.375C526.521 35.375 524.333 34.375 523.625 34.375V33.1875L545.75 30.8125V31.375C545.75 31.875 544.167 33.2708 541 35.5625C542.583 40.9375 544.562 49.3125 546.938 60.6875H547.562C547.562 60.0208 550.75 49.6458 557.125 29.5625C552.75 27.4792 550.562 26.0833 550.562 25.375C550.938 25.375 551.125 25.1875 551.125 24.8125Z" fill="white"/>
</svg>
